<svg width="92" height="24" viewBox="0 0 92 24" fill="none" xmlns="http://www.w3.org/2000/svg">
<path d="M23.6523 20.0566L12.9648 3.43164C12.7793 3.09766 12.3711 2.875 12 2.875C11.5918 2.875 11.1836 3.09766 10.998 3.43164L0.310547 20.0566C0.199219 20.2422 0.0878906 20.502 0.0878906 20.7246C0.0878906 20.873 0.162109 21.1328 0.236328 21.2812C0.421875 21.6152 0.904297 21.875 1.27539 21.875H1.3125H22.6875C23.0957 21.875 23.5039 21.6523 23.7266 21.2812C23.8008 21.1328 23.875 20.873 23.875 20.7246C23.875 20.502 23.7637 20.2422 23.6523 20.0566ZM12 6.28906L15.1543 11.1875H12L9.625 13.5625L8.17773 12.1523L12 6.28906Z" fill="#443A82"/>
<path d="M33.9106 18.144C32.8866 18.144 31.9906 17.952 31.2226 17.568C30.4653 17.1733 29.8733 16.64 29.4466 15.968C29.0306 15.2853 28.8226 14.512 28.8226 13.648C28.8226 12.784 29.0253 12.016 29.4306 11.344C29.8466 10.6613 30.4173 10.1333 31.1426 9.76C31.868 9.376 32.684 9.184 33.5906 9.184C34.444 9.184 35.2226 9.36 35.9266 9.712C36.6306 10.0533 37.1906 10.56 37.6066 11.232C38.0226 11.904 38.2306 12.72 38.2306 13.68C38.2306 13.7867 38.2253 13.9093 38.2146 14.048C38.204 14.1867 38.1933 14.3147 38.1826 14.432H31.3186V12.832H36.5666L35.4146 13.28C35.4253 12.8853 35.3506 12.544 35.1906 12.256C35.0413 11.968 34.828 11.744 34.5506 11.584C34.284 11.424 33.9693 11.344 33.6066 11.344C33.244 11.344 32.924 11.424 32.6466 11.584C32.38 11.744 32.172 11.9733 32.0226 12.272C31.8733 12.56 31.7986 12.9013 31.7986 13.296V13.76C31.7986 14.1867 31.884 14.5547 32.0546 14.864C32.236 15.1733 32.492 15.4133 32.8226 15.584C33.1533 15.744 33.548 15.824 34.0066 15.824C34.4333 15.824 34.796 15.7653 35.0946 15.648C35.404 15.52 35.708 15.328 36.0066 15.072L37.6066 16.736C37.1906 17.1947 36.6786 17.5467 36.0706 17.792C35.4626 18.0267 34.7426 18.144 33.9106 18.144ZM41.892 18L38.324 9.328H41.444L44.292 16.576H42.724L45.716 9.328H48.612L45.028 18H41.892ZM53.7075 18.144C52.6835 18.144 51.7875 17.952 51.0195 17.568C50.2622 17.1733 49.6702 16.64 49.2435 15.968C48.8275 15.2853 48.6195 14.512 48.6195 13.648C48.6195 12.784 48.8222 12.016 49.2275 11.344C49.6435 10.6613 50.2142 10.1333 50.9395 9.76C51.6648 9.376 52.4808 9.184 53.3875 9.184C54.2408 9.184 55.0195 9.36 55.7235 9.712C56.4275 10.0533 56.9875 10.56 57.4035 11.232C57.8195 11.904 58.0275 12.72 58.0275 13.68C58.0275 13.7867 58.0222 13.9093 58.0115 14.048C58.0008 14.1867 57.9902 14.3147 57.9795 14.432H51.1155V12.832H56.3635L55.2115 13.28C55.2222 12.8853 55.1475 12.544 54.9875 12.256C54.8382 11.968 54.6248 11.744 54.3475 11.584C54.0808 11.424 53.7662 11.344 53.4035 11.344C53.0408 11.344 52.7208 11.424 52.4435 11.584C52.1768 11.744 51.9688 11.9733 51.8195 12.272C51.6702 12.56 51.5955 12.9013 51.5955 13.296V13.76C51.5955 14.1867 51.6808 14.5547 51.8515 14.864C52.0328 15.1733 52.2888 15.4133 52.6195 15.584C52.9502 15.744 53.3448 15.824 53.8035 15.824C54.2302 15.824 54.5928 15.7653 54.8915 15.648C55.2008 15.52 55.5048 15.328 55.8035 15.072L57.4035 16.736C56.9875 17.1947 56.4755 17.5467 55.8675 17.792C55.2595 18.0267 54.5395 18.144 53.7075 18.144ZM59.4291 18V9.328H62.3251V11.856L61.8931 11.136C62.1491 10.4853 62.5651 10 63.1411 9.68C63.7171 9.34933 64.4158 9.184 65.2371 9.184V11.92C65.0985 11.8987 64.9758 11.888 64.8691 11.888C64.7731 11.8773 64.6665 11.872 64.5491 11.872C63.9305 11.872 63.4291 12.0427 63.0451 12.384C62.6611 12.7147 62.4691 13.2587 62.4691 14.016V18H59.4291ZM70.9575 18.144C69.9335 18.144 69.0375 17.952 68.2695 17.568C67.5122 17.1733 66.9202 16.64 66.4935 15.968C66.0775 15.2853 65.8695 14.512 65.8695 13.648C65.8695 12.784 66.0722 12.016 66.4775 11.344C66.8935 10.6613 67.4642 10.1333 68.1895 9.76C68.9148 9.376 69.7308 9.184 70.6375 9.184C71.4908 9.184 72.2695 9.36 72.9735 9.712C73.6775 10.0533 74.2375 10.56 74.6535 11.232C75.0695 11.904 75.2775 12.72 75.2775 13.68C75.2775 13.7867 75.2722 13.9093 75.2615 14.048C75.2508 14.1867 75.2402 14.3147 75.2295 14.432H68.3655V12.832H73.6135L72.4615 13.28C72.4722 12.8853 72.3975 12.544 72.2375 12.256C72.0882 11.968 71.8748 11.744 71.5975 11.584C71.3308 11.424 71.0162 11.344 70.6535 11.344C70.2908 11.344 69.9708 11.424 69.6935 11.584C69.4268 11.744 69.2188 11.9733 69.0695 12.272C68.9202 12.56 68.8455 12.9013 68.8455 13.296V13.76C68.8455 14.1867 68.9308 14.5547 69.1015 14.864C69.2828 15.1733 69.5388 15.4133 69.8695 15.584C70.2002 15.744 70.5948 15.824 71.0535 15.824C71.4802 15.824 71.8428 15.7653 72.1415 15.648C72.4508 15.52 72.7548 15.328 73.0535 15.072L74.6535 16.736C74.2375 17.1947 73.7255 17.5467 73.1175 17.792C72.5095 18.0267 71.7895 18.144 70.9575 18.144ZM79.8311 18.144C79.0951 18.144 78.3751 18.0587 77.6711 17.888C76.9778 17.7173 76.4178 17.504 75.9911 17.248L76.9031 15.168C77.3085 15.4133 77.7831 15.6107 78.3271 15.76C78.8711 15.8987 79.4045 15.968 79.9271 15.968C80.4391 15.968 80.7911 15.9147 80.9831 15.808C81.1858 15.7013 81.2871 15.5573 81.2871 15.376C81.2871 15.2053 81.1911 15.0827 80.9991 15.008C80.8178 14.9227 80.5725 14.8587 80.2631 14.816C79.9645 14.7733 79.6338 14.7253 79.2711 14.672C78.9085 14.6187 78.5405 14.5493 78.1671 14.464C77.8045 14.368 77.4685 14.2293 77.1591 14.048C76.8605 13.856 76.6205 13.6 76.4391 13.28C76.2578 12.96 76.1671 12.5547 76.1671 12.064C76.1671 11.5093 76.3271 11.0187 76.6471 10.592C76.9778 10.1547 77.4578 9.81333 78.0871 9.568C78.7165 9.312 79.4845 9.184 80.3911 9.184C80.9991 9.184 81.6125 9.248 82.2311 9.376C82.8605 9.49333 83.3885 9.67467 83.8151 9.92L82.9031 11.984C82.4765 11.7387 82.0498 11.5733 81.6231 11.488C81.1965 11.392 80.7911 11.344 80.4071 11.344C79.8951 11.344 79.5325 11.4027 79.3191 11.52C79.1165 11.6373 79.0151 11.7813 79.0151 11.952C79.0151 12.1227 79.1058 12.256 79.2871 12.352C79.4685 12.4373 79.7085 12.5067 80.0071 12.56C80.3165 12.6027 80.6525 12.6507 81.0151 12.704C81.3778 12.7467 81.7405 12.816 82.1031 12.912C82.4765 13.008 82.8125 13.152 83.1111 13.344C83.4205 13.5253 83.6658 13.776 83.8471 14.096C84.0285 14.4053 84.1191 14.8053 84.1191 15.296C84.1191 15.8293 83.9538 16.3093 83.6231 16.736C83.3031 17.1627 82.8231 17.504 82.1831 17.76C81.5538 18.016 80.7698 18.144 79.8311 18.144ZM89.3011 18.144C88.1918 18.144 87.3278 17.872 86.7091 17.328C86.0905 16.7733 85.7811 15.9413 85.7811 14.832V7.392H88.8211V14.8C88.8211 15.1093 88.9065 15.3547 89.0771 15.536C89.2478 15.7067 89.4665 15.792 89.7331 15.792C90.0958 15.792 90.4051 15.7013 90.6611 15.52L91.4131 17.648C91.1571 17.8187 90.8425 17.9413 90.4691 18.016C90.0958 18.1013 89.7065 18.144 89.3011 18.144ZM84.5171 11.92V9.648H90.8051V11.92H84.5171Z" fill="#3B2B9F"/>
</svg>
